<?xml version="1.0" encoding="UTF-8" standalone="no"?>
<svg
   xmlns:dc="http://purl.org/dc/elements/1.1/"
   xmlns:cc="http://creativecommons.org/ns#"
   xmlns:rdf="http://www.w3.org/1999/02/22-rdf-syntax-ns#"
   xmlns:svg="http://www.w3.org/2000/svg"
   xmlns="http://www.w3.org/2000/svg"
   xmlns:sodipodi="http://sodipodi.sourceforge.net/DTD/sodipodi-0.dtd"
   xmlns:inkscape="http://www.inkscape.org/namespaces/inkscape"
   viewBox="0 0 47.5 47.5"
   style="enable-background:new 0 0 47.5 47.5;"
   xml:space="preserve"
   version="1.1"
   id="svg2"
   inkscape:version="0.91 r"
   sodipodi:docname="1f440.svg"><sodipodi:namedview
     pagecolor="#ffffff"
     bordercolor="#666666"
     borderopacity="1"
     objecttolerance="10"
     gridtolerance="10"
     guidetolerance="10"
     inkscape:pageopacity="0"
     inkscape:pageshadow="2"
     inkscape:window-width="1871"
     inkscape:window-height="1056"
     id="namedview18"
     showgrid="false"
     inkscape:zoom="4.9684211"
     inkscape:cx="23.75"
     inkscape:cy="23.75"
     inkscape:window-x="49"
     inkscape:window-y="24"
     inkscape:window-maximized="1"
     inkscape:current-layer="svg2" /><metadata
     id="metadata8"><rdf:RDF><cc:Work
         rdf:about=""><dc:format>image/svg+xml</dc:format><dc:type
           rdf:resource="http://purl.org/dc/dcmitype/StillImage" /><dc:title></dc:title></cc:Work></rdf:RDF></metadata><defs
     id="defs6"><clipPath
       id="clipPath16"
       clipPathUnits="userSpaceOnUse"><path
         id="path18"
         d="M 0,38 38,38 38,0 0,0 0,38 Z" /></clipPath></defs><g
     id="g3387"
     transform="matrix(0.70557452,0,0,0.67751196,12.480919,9.0662547)"><g
       inkscape:export-ydpi="90"
       inkscape:export-xdpi="90"
       transform="matrix(0.44835216,0,0,0.96,12.56456,1.0474576)"
       id="g3373"><g
         id="g20"
         transform="matrix(1.25,0,0,-1.25,22.5,23.75)"><path
           inkscape:connector-curvature="0"
           d="m 0,0 c 0,-5.522 -3.806,-10 -8.5,-10 -4.694,0 -8.5,4.478 -8.5,10 0,5.523 3.806,10 8.5,10 C -3.806,10 0,5.523 0,0"
           style="fill:#e1e8ed;fill-opacity:1;fill-rule:nonzero;stroke:none"
           id="path22" /></g><g
         id="g24"
         transform="matrix(1.25,0,0,-1.25,46.25,23.75)"><path
           inkscape:connector-curvature="0"
           d="m 0,0 c 0,-5.522 -3.806,-10 -8.5,-10 -4.694,0 -8.5,4.478 -8.5,10 0,5.523 3.806,10 8.5,10 C -3.806,10 0,5.523 0,0"
           style="fill:#e1e8ed;fill-opacity:1;fill-rule:nonzero;stroke:none"
           id="path26" /></g><g
         id="g28"
         transform="matrix(1.25,0,0,-1.25,17.891949,29.756356)"><path
           inkscape:connector-curvature="0"
           d="m 0,0 c 0,-1.657 -1.343,-3 -3,-3 -1.657,0 -3,1.343 -3,3 0,1.657 1.343,3 3,3 1.657,0 3,-1.343 3,-3"
           style="fill:#292f33;fill-opacity:1;fill-rule:nonzero;stroke:none"
           id="path30" /></g><g
         id="g32"
         transform="matrix(1.25,0,0,-1.25,41.641949,30.561441)"><path
           inkscape:connector-curvature="0"
           d="m 0,0 c 0,-1.657 -1.344,-3 -3,-3 -1.656,0 -3,1.343 -3,3 0,1.657 1.344,3 3,3 1.656,0 3,-1.343 3,-3"
           style="fill:#292f33;fill-opacity:1;fill-rule:nonzero;stroke:none"
           id="path34" /></g></g><path
       d="M 39.650423,24.756353 A 16.403603,17.711864 0 0 1 24.658734,42.402486 16.403603,17.711864 0 0 1 7.0862741,27.794077 16.403603,17.711864 0 0 1 19.052922,7.6331554 16.403603,17.711864 0 0 1 38.685401,18.770927"
       sodipodi:open="true"
       sodipodi:end="5.9384653"
       sodipodi:start="0"
       sodipodi:ry="17.711864"
       sodipodi:rx="16.403603"
       sodipodi:cy="24.756353"
       sodipodi:cx="23.24682"
       sodipodi:type="arc"
       id="path3383"
       style="opacity:0.73251026;fill:#00ff00;fill-opacity:0.22891241;stroke-linecap:butt;stroke-linejoin:round" /><path
       d="m 40.858051,13.384534 a 0.20127119,0.70444918 0 0 1 -0.183947,0.701835 0.20127119,0.70444918 0 0 1 -0.215613,-0.581017 0.20127119,0.70444918 0 0 1 0.14683,-0.801854 0.20127119,0.70444918 0 0 1 0.24089,0.442979"
       sodipodi:open="true"
       sodipodi:end="5.9384653"
       sodipodi:start="0"
       sodipodi:ry="0.70444918"
       sodipodi:rx="0.20127119"
       sodipodi:cy="13.384534"
       sodipodi:cx="40.65678"
       sodipodi:type="arc"
       id="path3385"
       style="opacity:0.73251026;fill:#00ff00;fill-opacity:0.22891241;stroke-linecap:butt;stroke-linejoin:round" /></g></svg>